<svg xmlns="http://www.w3.org/2000/svg" width="192" height="52" fill="none"><path fill="#CB0000" d="M31.752 35.896c-.58-1.302-2.082-2.004-3.868-1.809-1.702.186-3.161.908-4.391 2.075-1.535 1.458-1.763 2.741-.883 4.638-1.444.626-2.643.172-3.605-1.286-.884-1.338-1.712-2.738-2.766-3.934-.587-.667-1.21-1.254-3.682-2.493a10 10 0 0 0-.398-.585c-.557-.757-1.137-1.516-1.56-2.348-.926-1.826-.402-3.43 1.47-4.219 1.065-.448 2.276-.542 3.399-.874.514-.152 1.207-.37 1.416-.768.803-1.532 1.442-3.15 2.257-4.997-5.184-.115-8.625 1.852-10.249 6.786-1.145-3.222-.345-6.21 2.122-8.35 2.604-2.257 5.783-3.051 9.085-3.558.58-.089 1.436-.297 1.629-.704 1.935-4.077 3.758-8.207 5.653-12.413-.422-.13-.634-.243-.852-.256-5.675-.325-11.04.72-15.878 3.816C2.098 10.089.301 19.223 6.218 27.473c1.328 1.85 3.013 3.453 4.593 5.112 1.722 1.808 1.97 3.624.635 5.434-2.36-1.833-4.22-1.927-6.742-.256-2.021 1.339-3.493 3.139-4.298 5.45-.844 2.425-.348 4.743 1.279 5.968 1.736 1.308 3.907 1.222 6.066-.334 3.158-2.274 4.968-5.45 5.902-9.16a8.6 8.6 0 0 0 .268-2.186l.024.067c.814-.22 1.643-.583 3.435 1.42.436.487.928.933 1.356 1.432 1.23 1.431 2.775 2.185 4.665 2.146 2.675-.055 5.125-.79 7.172-2.586 1.399-1.229 1.798-2.695 1.18-4.084"/><path fill="#000" d="M45.58 8.3q2.1.24 4 .28 1.92.04 3.46-.1 1.22-.12 2.42-.36 1.22-.26 2.3-.6l.22 1.44q-.98.28-2.2.52-1.2.24-2.4.36-1.52.14-3.54.14a51 51 0 0 1-4.16-.22zm-.38 4.1q1.7.18 3.36.24 1.66.04 3.14-.02t2.64-.2a25 25 0 0 0 2.62-.42 22 22 0 0 0 1.98-.52l.24 1.5q-.82.22-1.92.44-1.1.2-2.36.36-1.24.14-2.82.22-1.58.06-3.34.04a99 99 0 0 1-3.46-.14zm6.84-4.36q-.12-.46-.28-.9a35 35 0 0 0-.28-.88l1.7-.22q.1.84.32 1.76.22.9.48 1.78.26.86.5 1.56.28.78.66 1.66t.84 1.74.98 1.64q.16.22.34.44.2.2.4.42l-.82 1.22a9 9 0 0 0-1.32-.26 28 28 0 0 0-1.56-.2 142 142 0 0 0-1.5-.18l.14-1.22q.8.08 1.66.18t1.34.16a22 22 0 0 1-1.48-2.68 37 37 0 0 1-1.06-2.6q-.24-.68-.44-1.26l-.34-1.14q-.14-.54-.28-1.02M48.1 16.7q-.36.52-.6 1.06t-.24 1.2q0 1.24 1.12 1.86 1.14.62 3.5.62 1.4 0 2.54-.1t2.22-.32l-.06 1.6q-1.04.16-2.22.24-1.18.1-2.46.1-1.96 0-3.34-.4-1.36-.4-2.08-1.22-.7-.82-.72-2.1-.02-.86.2-1.52.24-.68.58-1.34zM70.86 6.26q-.1.34-.2.82t-.16.78q-.14.72-.34 1.68a54 54 0 0 1-.42 1.98 33 33 0 0 1-.5 2.04q-.26 1.06-.64 2.32-.38 1.24-.8 2.5t-.86 2.38-.82 1.96l-1.76-.6q.46-.78.92-1.86.48-1.1.92-2.34.46-1.24.84-2.46.4-1.24.68-2.28.2-.7.38-1.48t.34-1.52q.16-.76.26-1.38.12-.64.18-1.04.06-.42.08-.88a5 5 0 0 0-.02-.78zM66.42 9.6q1.12 0 2.4-.1a38 38 0 0 0 2.64-.34 29 29 0 0 0 2.58-.54v1.58q-1.24.28-2.6.48t-2.68.32a31 31 0 0 1-3.58.08q-.56-.04-1.1-.06l-.06-1.56q.72.08 1.28.12.58.02 1.12.02m6.32 2.76a31 31 0 0 1 1.74-.12q.96-.06 1.92-.06.88 0 1.76.04.9.04 1.7.14l-.04 1.52a27 27 0 0 0-1.62-.16 19 19 0 0 0-1.74-.08q-.94 0-1.88.06-.92.04-1.84.14zm.42 4.86q-.12.48-.2.94t-.08.86q0 .36.12.7.14.32.5.58t1.02.42q.68.16 1.74.16.98 0 1.98-.1a17 17 0 0 0 1.92-.3l-.06 1.62a27 27 0 0 1-3.86.28q-2.36 0-3.62-.72-1.26-.74-1.26-2.22 0-.58.08-1.16.1-.58.22-1.2zM89.44 6.14q-.04.32-.08.84a13 13 0 0 0-.04 1.06v6.12l-1.48-.8V8.04q0-.6-.04-1.08a5 5 0 0 0-.12-.82zm7 2.02q.44.3.98.76.56.44 1.12.96t1.06 1.04q.5.5.84.92l-1.12 1.14q-.48-.64-1.2-1.36-.7-.72-1.42-1.36-.72-.66-1.28-1.06zm-12.6.64q.9.14 1.66.22.76.06 1.5.06 1.44 0 3.04-.22a29 29 0 0 0 3.12-.64v1.54q-1.02.22-2.12.38-1.08.16-2.1.26a23 23 0 0 1-3.32.04 43 43 0 0 1-1.7-.16zm4.98 9.02q-.02.2-.04.56-.02.34-.04.74-.02.38-.02.7 0 .4.1.7t.4.48q.32.18.96.28.66.08 1.74.08.56 0 1.2-.04.66-.06 1.24-.14.6-.08.96-.18.78-.22 1.22-.72.44-.52.44-1.5 0-.6-.04-1.14-.02-.54-.08-1.12l1.7.52q.02.4.02.74v.68q.02.32-.02.74-.04.94-.32 1.58a2.35 2.35 0 0 1-.82 1.02q-.54.4-1.46.64-.44.12-1.16.2-.72.1-1.52.14-.8.06-1.46.06-1.2 0-2.02-.12-.82-.1-1.34-.32-.5-.2-.78-.5-.26-.3-.36-.66a3.3 3.3 0 0 1-.1-.84q0-.54.02-1.06.04-.52.06-1zm1-2.66q0 .68-.16 1.44a4.8 4.8 0 0 1-.5 1.4q-.36.66-.98 1.08t-1.58.42q-.56 0-1.16-.3-.6-.32-1.02-1-.4-.7-.4-1.86 0-1.02.4-1.92a3.8 3.8 0 0 1 1.16-1.46 2.77 2.77 0 0 1 1.72-.56q1.22 0 1.86.78.66.78.66 1.98m-3.06 2.86q.62 0 .96-.4.36-.42.5-1.06.16-.66.16-1.32 0-.72-.32-1.12a1 1 0 0 0-.84-.42q-.5 0-.92.34-.42.32-.68.9-.24.56-.24 1.32 0 .84.42 1.3t.96.46m21.94-11.7q.64.2 1.66.44 1.04.24 2.18.48 1.16.22 2.2.4 1.04.16 1.7.22l-.38 1.54a53 53 0 0 1-1.38-.22q-.8-.14-1.72-.32t-1.82-.36q-.9-.2-1.64-.36-.74-.18-1.2-.3zm-.44 3.64q-.1.52-.22 1.28-.1.74-.22 1.56t-.22 1.56-.18 1.22q1.46-1.26 3.08-1.84 1.64-.6 3.44-.6 1.54 0 2.68.56 1.14.54 1.78 1.5.64.94.64 2.12 0 1.34-.62 2.44-.6 1.08-1.9 1.82-1.28.74-3.28 1.04-2 .32-4.8.08l-.48-1.64q3.18.38 5.26-.02 2.08-.42 3.1-1.4 1.04-1 1.04-2.36 0-.8-.46-1.42t-1.26-.96q-.78-.36-1.8-.36-1.96 0-3.56.72a7.2 7.2 0 0 0-2.64 1.96 3 3 0 0 0-.36.52q-.14.24-.24.48l-1.48-.36q.12-.56.24-1.34.12-.8.24-1.7.12-.92.22-1.84a50 50 0 0 0 .32-3.24zM46.305 33.645q.585.075 1.38.21t1.68.315q.9.18 1.785.39.9.21 1.68.42t1.35.405l-.48 1.155q-.555-.195-1.32-.405a35 35 0 0 0-1.635-.435q-.855-.21-1.755-.39-.885-.195-1.695-.33a22 22 0 0 0-1.425-.225zm-.675 3.96q.765.135 1.77.33t2.07.45q1.08.24 2.055.51.975.255 1.665.51l-.48 1.155q-.645-.255-1.605-.525a48 48 0 0 0-4.11-.975 35 35 0 0 0-1.815-.33zm-.825 4.365q.765.12 1.695.315.945.18 1.95.42 1.005.225 1.98.48t1.83.525q.855.255 1.47.51l-.51 1.155q-.6-.255-1.455-.525-.855-.285-1.845-.54-.975-.27-1.995-.495a68 68 0 0 0-3.585-.705zm23.25-4.11a4 4 0 0 0-.105.465q-.03.345-.12.93-.075.585-.18 1.29l-.21 1.41-.195 1.275q-.075.57-.135.885h-1.275q.06-.255.135-.78.09-.54.195-1.215.12-.675.21-1.35.09-.69.15-1.245.075-.57.09-.87h-4.77q-.33 0-.63.015l-.57.03v-1.26q.18.03.375.045l.42.03q.21.015.39.015h4.56q.135 0 .27-.015l.285-.03q.135-.03.195-.06zm-8.82 5.775q.27.015.585.045.315.015.66.015h8.175q.24 0 .585-.015.36-.015.6-.03v1.215a3 3 0 0 0-.345-.015h-.42a5 5 0 0 0-.375-.015h-8.22q-.345 0-.63.015-.285 0-.615.03zm14.295-5.13q.225.015.555.045l.72.03h9.03q.57 0 .975-.03t.645-.045v1.47l-.675-.045q-.435-.03-.93-.03h-8.235q-.615 0-1.17.03-.555.015-.915.045zm23.917-4.695q.195.255.45.675.27.42.525.855t.42.795l-.855.39q-.18-.39-.405-.795-.225-.42-.465-.825t-.495-.75zm1.965-.72q.21.255.465.66t.525.84.45.795l-.855.39q-.195-.405-.435-.81t-.495-.795q-.24-.39-.495-.72zm-8.37.495q.33.18.78.48.45.285.93.6.48.3.885.585.42.27.66.45l-.705 1.035q-.27-.21-.69-.495-.405-.285-.87-.585-.45-.315-.9-.585-.435-.285-.765-.48zm-2.25 10.725q.825-.15 1.695-.39t1.725-.585 1.605-.765q1.245-.72 2.31-1.59 1.065-.885 1.92-1.875t1.455-2.04l.72 1.245q-.975 1.5-2.475 2.91-1.5 1.395-3.3 2.445-.75.435-1.65.81-.885.36-1.755.63-.855.285-1.56.42zm-.015-7.35a35 35 0 0 1 1.74 1.02q.48.3.885.57.42.255.66.435l-.675 1.05q-.285-.21-.705-.48-.405-.27-.87-.57t-.915-.555q-.45-.27-.795-.45zm20.175-.6q.105.225.27.675.165.435.345.93.195.495.345.945.15.435.225.69l-1.11.39q-.06-.255-.21-.69a21 21 0 0 0-.315-.93q-.18-.51-.36-.945l-.285-.69zm5.43.84q-.075.225-.135.42-.045.18-.09.33-.3 1.23-.81 2.415-.51 1.17-1.32 2.19-1.035 1.32-2.34 2.205-1.29.885-2.55 1.365l-.99-1.005q.87-.27 1.755-.72.9-.45 1.695-1.08a8.6 8.6 0 0 0 1.425-1.395q.54-.66.96-1.485.435-.825.72-1.755t.39-1.89zm-8.91-.09q.12.255.3.69t.375.96q.21.51.39.99.195.465.3.75l-1.14.42q-.09-.285-.27-.765-.165-.495-.375-1.02t-.405-.96q-.18-.435-.285-.63zm24.315-1.485q-.105.15-.195.39-.09.225-.15.405-.195.75-.57 1.65-.375.885-.9 1.8-.525.9-1.2 1.71a13 13 0 0 1-2.445 2.28q-1.41 1.02-3.525 1.8l-1.08-.975q1.38-.405 2.475-.975 1.095-.585 1.965-1.29t1.545-1.5q.585-.69 1.065-1.515.495-.825.84-1.65.345-.84.495-1.515h-5.565l.48-1.08h4.785q.3 0 .555-.03.255-.045.42-.12zm-5.025-2.28q-.195.3-.375.645-.18.33-.285.54-.45.825-1.125 1.785a15 15 0 0 1-1.605 1.875q-.93.93-2.145 1.74l-1.035-.78q.975-.57 1.74-1.245t1.335-1.365q.585-.69.99-1.32t.645-1.14q.12-.195.255-.54.15-.36.21-.645zm18.491 1.62q-.075.09-.195.3-.105.195-.18.36-.285.735-.75 1.635-.465.885-1.035 1.755t-1.2 1.575q-.825.93-1.815 1.815a24 24 0 0 1-2.085 1.635q-1.095.75-2.28 1.29l-.96-1.005q1.215-.48 2.325-1.185 1.125-.72 2.1-1.56.99-.855 1.755-1.71.51-.585 1.005-1.305.51-.735.9-1.485.405-.765.585-1.38h-5.85q-.255 0-.585.015l-.585.03q-.255.015-.345.03V34.41q.105.015.375.045l.6.03q.315.015.54.015h5.79q.375 0 .66-.03.3-.03.465-.09zm-3.165 4.83q.615.51 1.26 1.125.66.615 1.29 1.275.63.645 1.17 1.245.54.585.93 1.065l-1.05.9q-.525-.72-1.26-1.545-.735-.84-1.56-1.665a23 23 0 0 0-1.635-1.545zm19.245-4.17q-.105.15-.195.39-.09.225-.15.405-.195.75-.57 1.65-.375.885-.9 1.8-.525.9-1.2 1.71a13 13 0 0 1-2.445 2.28q-1.41 1.02-3.525 1.8l-1.08-.975q1.38-.405 2.475-.975 1.095-.585 1.965-1.29t1.545-1.5q.585-.69 1.065-1.515.495-.825.84-1.65.345-.84.495-1.515h-5.565l.48-1.08h4.785q.3 0 .555-.03.255-.045.42-.12zm-5.025-2.28q-.195.3-.375.645-.18.33-.285.54-.45.825-1.125 1.785a15 15 0 0 1-1.605 1.875q-.93.93-2.145 1.74l-1.035-.78q.975-.57 1.74-1.245t1.335-1.365q.585-.69.99-1.32t.645-1.14q.12-.195.255-.54.15-.36.21-.645zm8.475 5.16q.225.015.555.045l.72.03h9.03q.57 0 .975-.03t.645-.045v1.47l-.675-.045q-.435-.03-.93-.03h-8.235q-.615 0-1.17.03-.555.015-.915.045zm21.33 6.18q.045-.18.06-.39.03-.225.03-.45V34.86a7 7 0 0 0-.075-1.11h1.38q0 .09-.03.39t-.03.72v8.655a11.85 11.85 0 0 0 3.045-2.13q.765-.72 1.335-1.56l.705 1.02q-.645.87-1.515 1.665-.855.795-1.785 1.425T185.418 45q-.18.105-.315.195-.12.09-.195.15zm-6.87-.075a6.6 6.6 0 0 0 1.605-1.635q.66-.96 1.005-2.055.165-.51.255-1.275t.135-1.62q.045-.87.045-1.68.015-.825.015-1.455 0-.33-.03-.585-.03-.27-.075-.51h1.38q-.015.09-.03.27-.015.165-.03.375t-.015.435q0 .63-.015 1.485-.015.84-.075 1.77-.045.915-.135 1.74a7.2 7.2 0 0 1-.24 1.38q-.33 1.2-1.035 2.265a8.3 8.3 0 0 1-1.635 1.86z"/></svg>